<svg width="222" height="80" viewBox="0 0 222 80" fill="none" xmlns="http://www.w3.org/2000/svg">
<g clip-path="url(#clip0_21_82)">
<path d="M57.3672 21.0867C56.2038 18.4351 54.5563 16.0826 52.4168 14.0291C50.2774 11.9756 47.7241 10.3341 44.7491 9.10469C42.0787 8.00152 39.1428 7.40341 35.9492 7.29044C35.387 8.26734 34.2783 8.99836 32.6073 8.99836C31.233 8.99836 30.2414 8.49994 29.6245 7.77557C29.3356 7.8686 29.0155 7.92841 28.6798 7.96164C28.1878 8.34709 27.5319 8.60627 26.7355 8.69931C26.634 8.71924 26.5325 8.73254 26.431 8.74583C26.2514 8.799 26.064 8.83887 25.8688 8.87209C25.7985 8.89203 25.7204 8.91197 25.6502 8.92526V8.93191C23.8855 9.56324 22.074 10.5534 20.2156 11.8958C17.7092 13.637 15.5931 16.1491 13.8753 19.432C12.1575 22.7149 10.6896 26.689 9.48709 31.3609C8.27681 36.0328 7.25393 41.3891 6.41844 47.4366C5.58296 53.4842 4.88803 60.1564 4.32584 67.4333C4.32584 67.5928 4.46638 67.8919 4.74748 68.3238C5.02858 68.7624 5.39557 69.1944 5.86407 69.6264C6.32475 70.065 6.84009 70.4371 7.39448 70.7561C7.94886 71.0751 8.51105 71.228 9.06544 71.228C10.2757 71.228 11.2517 70.3973 11.9935 68.7359C12.7353 67.0745 13.7113 64.7219 14.9216 61.6782C16.1319 58.6345 17.4046 55.232 18.7555 51.4705C20.0985 47.7158 21.4727 43.8148 22.8704 39.7809C24.2681 35.747 25.5643 31.8925 26.7745 28.2109C27.9848 24.5292 29.078 21.2329 30.054 18.3022C31.03 15.3782 31.7484 13.1585 32.2169 11.6566C35.0981 11.6566 37.7217 12.1152 40.0954 13.019C42.4691 13.9294 44.5071 15.1522 46.2327 16.7006C47.9505 18.2424 49.2779 20.0633 50.2071 22.1567C51.1363 24.2567 51.6048 26.4896 51.6048 28.8621C51.6048 31.9457 50.9333 35.1489 49.5824 38.4717C48.2316 41.7945 46.3967 45.0575 44.0776 48.2607C41.7508 51.4639 39.0335 54.5342 35.918 57.4582C32.8025 60.389 29.4372 62.994 25.8063 65.2934C22.1833 67.5862 18.4353 69.4868 14.5859 70.9887C10.7286 72.4906 6.89474 73.441 3.08432 73.8397H2.38939C1.6476 73.8397 1.22596 73.6802 1.13226 73.3679C1.03856 73.0489 0.898017 72.896 0.710619 72.896C0.523221 72.896 0.359252 73.0555 0.226512 73.3679C0.0859636 73.6802 0.015686 74.0391 0.015686 74.4378C0.015686 75.1489 0.343632 75.84 0.991717 76.5112C1.6398 77.1824 2.40501 77.7739 3.29515 78.2923C4.17748 78.804 5.13009 79.2227 6.15297 79.535C7.17585 79.8473 8.05818 80.0068 8.79996 80.0068C8.98736 80.0068 9.15133 79.9869 9.28407 79.947C9.42462 79.9072 9.58079 79.8872 9.76819 79.8872C13.6723 79.3356 17.5999 78.1859 21.5508 76.4448C25.5018 74.7036 29.3122 72.5305 32.9821 69.9188C36.652 67.3071 40.072 64.383 43.2265 61.1399C46.3888 57.8968 49.153 54.4943 51.5189 50.9322C53.8926 47.3702 55.7509 43.755 57.094 40.0733C58.437 36.3916 59.1163 32.8561 59.1163 29.4536C59.1163 26.5229 58.5307 23.7383 57.3672 21.0867ZM20.2859 26.1906C19.1225 30.0251 17.9825 33.7865 16.8737 37.4616C15.7571 41.1432 14.664 44.6388 13.5942 47.9616C12.5245 51.2845 11.525 54.1354 10.5959 56.5079C11.1502 53.0256 11.8296 49.3107 12.6182 45.3566C13.4068 41.4024 14.336 37.528 15.4057 33.7267C16.4755 29.9321 17.6857 26.39 19.0288 23.107C20.3718 19.8241 21.8866 17.1924 23.5575 15.2187C23.0734 16.8734 20.8949 24.1836 20.2859 26.1906Z" fill="#FFFFFF"/>
<path d="M63.4342 69.3205C65.1988 69.3205 67.3617 68.6493 69.915 67.3002C72.4683 65.9578 74.9826 64.4493 77.4422 62.7878C79.9018 61.1264 82.1115 59.5049 84.0636 57.9233C86.0156 56.3416 87.2727 55.3115 87.8271 54.8397C88.1082 54.6004 88.2878 54.4808 88.3815 54.4808C88.4752 54.4808 88.5221 54.5606 88.5221 54.7201C88.5221 55.1188 88.2175 55.8698 87.6163 56.9729C87.0073 58.0827 86.1952 59.3654 85.1801 60.8274C84.1573 62.2894 82.9001 63.8379 81.4166 65.4527C79.9252 67.0743 78.3245 68.5363 76.6067 69.8455C74.8889 71.148 73.0539 72.2379 71.1019 73.1085C69.1498 73.9791 67.1509 74.411 65.1051 74.411C61.3884 74.411 58.5306 73.3212 56.5317 71.148C54.5328 68.9749 53.5333 66.3831 53.5333 63.3727C53.5333 61.3192 53.9237 59.1593 54.7202 56.9065C55.5088 54.6536 56.6254 52.5004 58.0699 50.4403C59.5066 48.3868 61.1854 46.5061 63.0906 44.8048C64.9958 43.1035 67.065 41.781 69.2982 40.8307C70.5084 40.4386 71.5782 40.2392 72.5074 40.2392C73.9909 40.2392 75.576 40.6779 77.247 41.5418C78.9179 42.4124 79.894 43.5222 80.1751 44.8646V45.1171C80.6357 46.6988 80.6123 48.2007 80.1048 49.6295C79.5894 51.0517 78.8477 52.3609 77.8716 53.5438C76.8956 54.7267 75.8024 55.7568 74.5922 56.6274C73.3819 57.4979 72.2653 58.1691 71.2424 58.6476C70.2195 59.1195 69.2435 59.4385 68.3143 59.5979C67.3852 59.7574 66.5028 59.8372 65.6673 59.8372C63.9964 59.8372 62.6455 59.5581 61.6227 59.0065C60.9746 60.1163 60.4592 61.2195 60.0923 62.3293C59.7175 63.4391 59.5379 64.4293 59.5379 65.2932C59.5379 66.3233 59.819 67.2537 60.3733 68.0844C60.9277 68.9085 61.9506 69.3205 63.4342 69.3205ZM63.9964 55.4378C64.2775 55.677 64.6913 55.7967 65.2535 55.7967C66.2764 55.7967 67.4398 55.4046 68.736 54.6071C70.04 53.8163 71.2424 52.8859 72.359 51.8159C73.4756 50.746 74.4282 49.6627 75.2168 48.5529C76.0055 47.4431 76.31 46.5792 76.1226 45.9412C74.0768 46.4928 71.9608 47.6823 69.7823 49.5032C67.596 51.3241 65.6673 53.3045 63.9964 55.4378Z" fill="#FFFFFF"/>
<path d="M89.2248 54.6071C89.4122 54.6071 89.5059 54.7666 89.5059 55.0789C89.5059 56.3482 89.7402 57.8501 90.2009 59.5913C90.6615 61.3324 91.2706 62.9939 92.0124 64.5755C92.7541 66.1572 93.6131 67.5262 94.5891 68.6692C95.5651 69.8189 96.5177 70.3904 97.4469 70.3904C98.6572 70.3904 99.2584 69.8787 99.2584 68.8486C99.2584 67.8186 98.7899 66.4762 97.8607 64.8148C96.9316 63.1533 95.9087 61.3324 94.7921 59.3587C93.6755 57.3849 92.6526 55.3846 91.7235 53.3643C90.7943 51.3441 90.3726 49.47 90.4663 47.7289C90.4663 46.7785 90.7006 45.7352 91.1613 44.5855C91.622 43.4424 92.2544 42.3525 93.0431 41.3225C93.8317 40.2924 94.7609 39.4218 95.8306 38.7107C96.9003 37.9997 98.0403 37.6408 99.2506 37.6408C100.273 37.6408 101.367 37.9199 102.53 38.4715C103.694 39.0231 104.763 39.7209 105.739 40.5449C106.715 41.369 107.551 42.326 108.246 43.3959C108.941 44.4659 109.339 45.4693 109.433 46.4197C109.245 47.4497 108.714 48.3004 107.832 48.9716C106.95 49.6428 105.997 50.1811 104.974 50.5732C104.787 50.5732 104.646 50.5931 104.552 50.633C104.459 50.6729 104.365 50.6928 104.271 50.6928C103.897 50.5333 103.717 50.4137 103.717 50.3339C103.717 50.2542 103.74 50.2143 103.787 50.2143C103.834 50.2143 103.857 50.1744 103.857 50.0947C104.224 49.9352 104.412 49.8156 104.412 49.7358C104.506 49.1045 104.318 48.3735 103.857 47.5428C103.389 46.7121 102.788 45.9212 102.046 45.1703C101.304 44.4193 100.516 43.788 99.6723 43.2696C98.8368 42.7579 98.0872 42.4987 97.4391 42.4987C96.6973 42.4987 96.182 42.738 95.9087 43.2098C95.6354 43.6817 95.487 44.2 95.487 44.7516C95.3933 46.1007 95.9087 47.7621 97.0175 49.7358C98.134 51.7162 99.3365 53.7697 100.64 55.903C101.944 58.0362 103.147 60.1163 104.264 62.1299C105.38 64.1502 105.888 65.8315 105.794 67.1739C105.607 69.4667 104.63 71.2078 102.866 72.3974C101.101 73.587 99.0086 74.1784 96.588 74.1784C94.2611 74.1784 92.3559 73.7996 90.8724 73.0487C89.381 72.2977 88.2254 71.2876 87.3899 70.0249C86.5544 68.7623 85.9454 67.3534 85.5784 65.8116C85.2036 64.2698 84.9303 62.6682 84.7429 61.0068C84.7429 60.6945 84.8834 60.1761 85.1645 59.465C85.4456 58.7539 85.8126 58.0229 86.2811 57.272C86.7418 56.521 87.2337 55.8897 87.7413 55.3713C88.2722 54.8663 88.7641 54.6071 89.2248 54.6071Z" fill="#FFFFFF"/>
<path d="M110.416 69.3205C110.416 65.6853 111.064 61.4122 112.368 56.5077C113.672 51.6033 115.156 46.6589 116.827 41.6747C116.273 41.7544 115.788 41.7943 115.367 41.7943C114.945 41.7943 114.555 41.7943 114.18 41.7943C113.344 41.7146 112.689 41.2826 112.228 40.4918C111.759 39.7009 111.533 38.8304 111.533 37.88C111.533 37.0095 111.674 36.2186 111.955 35.5076C111.955 35.4278 112.025 35.3281 112.165 35.2085C112.298 35.0889 112.415 35.0689 112.509 35.1487C112.696 35.1487 112.767 35.2085 112.72 35.3281C112.673 35.4411 112.696 35.5408 112.79 35.6205C113.071 35.7003 113.626 35.7402 114.461 35.7402C115.109 35.7402 115.828 35.7202 116.624 35.6803C117.413 35.6405 118.271 35.5807 119.201 35.5009C120.778 30.9885 122.316 26.9746 123.8 23.459C125.283 19.9369 126.306 17.3118 126.868 15.5707C127.149 14.9394 127.446 14.1286 127.774 13.1384C128.102 12.1482 128.68 11.4571 129.515 11.065C129.703 10.9852 130.117 11.065 130.772 11.3042C131.421 11.5434 132.1 11.8757 132.795 12.3143C133.49 12.7529 134.122 13.2647 134.677 13.8561C135.231 14.4476 135.512 15.1055 135.512 15.8166C135.512 16.8467 135.254 18.209 134.747 19.9103C134.232 21.6116 133.607 23.3727 132.865 25.1936C132.123 27.0145 131.35 28.7755 130.562 30.4768C129.773 32.1781 129.094 33.5405 128.539 34.5705C132.443 34.1784 136.113 33.7199 139.557 33.2082C142.992 32.6965 145.272 32.3177 146.389 32.0784L146.53 31.9588L146.67 31.8392C146.951 31.6797 147.092 31.8791 147.092 32.4306C147.185 33.381 146.553 34.2715 145.21 35.1022C143.859 35.9329 142.118 36.7038 139.978 37.4149C137.839 38.1259 135.465 38.7639 132.865 39.3155C130.265 39.8671 127.704 40.3456 125.197 40.7377C124.081 42.7181 123.198 44.6719 122.55 46.6124C121.902 48.5529 121.246 50.5466 120.598 52.6067C119.669 55.6172 118.834 58.621 118.092 61.6249C117.35 64.6353 116.975 67.679 116.975 70.7626C116.975 73.2148 117.342 75.3082 118.092 77.0493C118.279 77.5212 118.646 77.7604 119.208 77.7604C119.763 77.7604 119.95 77.9199 119.763 78.2323C119.669 78.3918 119.435 78.5114 119.068 78.5911C118.693 78.6709 118.373 78.7108 118.092 78.7108C114.836 78.7108 112.743 77.7604 111.814 75.8598C110.885 73.9458 110.416 71.7727 110.416 69.3205Z" fill="#FFFFFF"/>
<path d="M137.605 41.4355C137.792 41.1962 138.065 41.0766 138.44 41.0766C138.901 41.0766 139.44 41.1962 140.041 41.4355C140.642 41.6747 141.251 41.9272 141.852 42.2063C142.454 42.4855 142.946 42.738 143.32 42.9772C143.687 43.2165 143.875 43.376 143.875 43.4491C143.227 44.6386 142.524 46.1406 141.782 47.9615C141.04 49.7824 140.361 51.683 139.76 53.6568C139.151 55.6371 138.667 57.591 138.292 59.5315C137.917 61.472 137.737 63.1533 137.737 64.5755C137.737 65.2068 137.831 65.9246 138.019 66.7088C138.206 67.1806 138.526 67.4198 138.995 67.4198C139.83 67.4198 141.017 66.9081 142.547 65.878C144.078 64.848 145.616 63.6651 147.146 62.316C148.677 60.9736 150.121 59.6644 151.472 58.4017C152.815 57.1391 153.721 56.3084 154.189 55.9096C154.471 55.6704 154.697 55.5508 154.884 55.5508C154.978 55.5508 155.025 55.6704 155.025 55.9096C155.025 56.4612 154.541 57.6109 153.557 59.3521C152.581 61.0932 151.324 62.8942 149.793 64.7483C148.263 66.6091 146.49 68.2705 144.492 69.7325C142.493 71.1945 140.423 71.9256 138.284 71.9256C136.886 71.9256 135.723 71.6465 134.802 71.0949C133.872 70.5433 133.154 69.8322 132.639 68.9616C132.123 68.091 131.78 67.1208 131.592 66.0575C131.405 64.9875 131.311 63.9442 131.311 62.9141C131.311 60.5416 131.772 57.5976 132.709 54.0754C133.654 50.5532 135.278 46.3399 137.605 41.4355ZM147.646 23.5189C148.575 23.5189 149.528 23.8179 150.504 24.4094C151.48 25.0008 152.198 25.7385 152.667 26.6024C152.667 26.6822 152.667 26.7619 152.667 26.8417C152.854 26.8417 152.854 26.9214 152.667 27.0809C152.573 27.0809 152.479 27.041 152.386 26.9613C152.292 26.8815 152.151 26.8815 151.964 26.9613C151.222 27.2803 150.449 27.9116 149.661 28.8619C148.872 29.8123 148.146 30.8623 147.498 32.0053C146.85 33.1484 146.295 34.2183 145.835 35.2085C145.366 36.1987 145.093 36.9297 144.999 37.4016C143.976 37.3218 143.258 36.83 142.836 35.9196C142.415 35.0091 142.212 34.0056 142.212 32.8958C142.212 32.2645 142.329 31.4338 142.563 30.4037C142.797 29.3736 143.141 28.3502 143.609 27.3201C144.07 26.2901 144.632 25.4062 145.28 24.6486C145.92 23.891 146.717 23.5189 147.646 23.5189Z" fill="#FFFFFF"/>
<path d="M155.868 74.0655C155.774 74.3778 155.447 74.5373 154.892 74.5373C154.057 74.5373 153.057 74.1386 151.894 73.3477C150.73 72.5569 150.153 71.6066 150.153 70.4968C150.153 68.7556 150.527 66.2834 151.269 63.0802C152.011 59.877 152.893 56.634 153.916 53.351C154.939 50.0681 155.985 47.0842 157.055 44.3928C158.125 41.7013 158.984 40.0399 159.632 39.4085C159.725 39.3288 159.866 39.2889 160.053 39.2889C160.608 39.2889 161.264 39.4085 162.005 39.6478C162.747 39.887 163.442 40.2193 164.098 40.6579C164.746 41.0965 165.308 41.5684 165.769 42.0801C166.23 42.5984 166.464 43.1301 166.464 43.6817C165.347 45.8149 164.325 47.9149 163.395 49.9684C162.466 52.0286 161.49 54.5606 160.467 57.5644C161.022 56.8533 162.138 55.7634 163.817 54.3014C165.488 52.8393 167.299 51.3773 169.252 49.9086C171.204 48.4466 173.085 47.1374 174.897 45.9943C176.708 44.8513 178.083 44.2731 179.012 44.2731C179.66 44.2731 180.339 44.5522 181.034 45.1038C181.729 45.6554 182.377 46.3133 182.986 47.0643C183.587 47.8152 184.103 48.5463 184.517 49.2573C184.93 49.9684 185.141 50.4868 185.141 50.7991C184.954 51.1181 184.696 51.7295 184.376 52.64C184.048 53.5504 183.681 54.6403 183.26 55.903C182.838 57.1723 182.471 58.4748 182.143 59.8172C181.815 61.1663 181.604 62.3891 181.518 63.4989C181.425 64.6087 181.448 65.5391 181.589 66.2901C181.729 67.041 182.12 67.4198 182.775 67.4198C183.705 67.4198 184.962 66.8882 186.539 65.8182C188.116 64.7483 189.694 63.5454 191.279 62.1964C192.856 60.854 194.324 59.5448 195.667 58.2821C197.01 57.0194 197.916 56.1887 198.384 55.79C198.665 55.5508 198.892 55.4311 199.079 55.4311L199.22 55.5508V55.79C199.22 56.3416 198.735 57.4913 197.752 59.2324C196.776 60.9736 195.495 62.7945 193.918 64.6885C192.333 66.5891 190.521 68.2705 188.483 69.7325C186.437 71.1945 184.345 71.9256 182.205 71.9256C179.418 71.9256 177.489 71.1148 176.419 69.4933C175.35 67.8717 174.819 65.9312 174.819 63.6783C174.819 61.4255 175.147 59.1527 175.795 56.8533C176.443 54.5606 177.052 52.7397 177.606 51.3972C175.279 53.3776 173.148 55.1786 171.196 56.7935C169.244 58.415 167.385 60.0565 165.621 61.7179C163.856 63.3793 162.177 65.2002 160.6 67.1739C159.031 69.161 157.453 71.4604 155.868 74.0655Z" fill="#FFFFFF"/>
<path d="M194.207 60.6613C194.207 58.8404 194.574 56.6672 195.323 54.1353C196.065 51.6033 197.158 49.171 198.603 46.8384C200.039 44.5057 201.812 42.5054 203.905 40.844C205.997 39.1826 208.386 38.3519 211.088 38.3519C213.321 38.3519 215.32 39.0829 217.085 40.545C218.85 42.007 220.107 44.0073 220.848 46.5393C221.13 46.938 221.286 47.4298 221.333 48.0213C221.379 48.6127 221.403 49.2308 221.403 49.8621C221.403 51.8425 220.934 54.1353 220.005 56.747C219.076 59.3587 217.842 61.8309 216.312 64.1635C214.781 66.4961 212.986 68.4765 210.94 70.098C208.894 71.7196 206.801 72.5303 204.662 72.5303C202.897 72.5303 201.359 72.1515 200.063 71.4006C198.759 70.6496 197.666 69.6993 196.783 68.5496C195.901 67.4066 195.253 66.1173 194.831 64.6951C194.418 63.2663 194.207 61.9239 194.207 60.6613ZM200.203 62.5553C200.203 62.8742 200.227 63.3261 200.274 63.9176C200.321 64.5091 200.438 65.0872 200.625 65.6388C200.812 66.1904 201.062 66.6689 201.39 67.061C201.718 67.4597 202.202 67.6524 202.85 67.6524C203.873 67.6524 205.154 66.9613 206.684 65.579C208.215 64.1967 209.683 62.4954 211.072 60.4752C212.47 58.4549 213.649 56.3217 214.625 54.0688C215.601 51.8159 216.093 49.7757 216.093 47.9548C216.093 46.2934 215.672 45.0706 214.836 44.2731C214.742 44.1137 214.532 43.994 214.211 43.9143C213.883 43.8345 213.626 43.7947 213.446 43.7947C212.704 43.7947 211.955 44.0538 211.213 44.5656C210.471 45.0839 209.792 45.6953 209.191 46.4064C208.582 47.1175 208.074 47.8286 207.66 48.5396C207.239 49.2507 206.895 49.8422 206.614 50.3207C206.239 51.1912 205.872 51.7628 205.497 52.0419C205.123 52.321 204.709 52.4539 204.24 52.4539C203.405 52.4539 202.749 52.095 202.288 51.384C202.101 51.7827 201.89 52.3941 201.664 53.2248C201.429 54.0555 201.195 54.9859 200.969 56.016C200.734 57.046 200.547 58.1359 200.414 59.279C200.274 60.4419 200.203 61.5318 200.203 62.5553Z" fill="#FFFFFF"/>
<path d="M23.0734 16.8732C23.0734 16.8732 24.7834 5.13708 41.7116 3.14339C82.7206 -1.68798 127.181 0.48514 127.181 0.48514C153.104 2.09338 212.517 4.63201 214.266 9.12445C214.758 10.3805 214.196 11.0251 214.196 11.0251C213.126 12.2678 209.433 11.5036 207.816 11.1181C207.77 11.1115 206.895 11.0317 206.848 11.0251C175.943 8.14754 160.491 6.70544 151.574 6.06746C144.773 5.58233 134.966 5.10385 115.351 4.15352C112.275 4.00732 107.605 3.78801 101.382 3.8013C93.9176 3.82124 90.5288 4.16017 83.6419 4.46587C77.5827 4.73834 44.874 6.06082 38.4868 9.78236C38.2994 9.88869 38.1042 10.0083 38.1042 10.0083C37.1126 10.5998 33.8019 12.5868 31.3267 15.1985C28.6406 18.0495 28.8905 19.5714 23.0734 16.8732Z" fill="#FFFFFF"/>
<path d="M207.77 3.76808C216.655 9.17762 221.481 11.7229 220.716 13.1118C220.575 13.371 220.2 13.6634 219.154 13.7764C218.982 13.7764 218.709 13.7764 218.373 13.7764C208.199 13.8096 202.476 15.1454 201.749 13.7099C201.687 13.5837 201.632 13.3777 201.749 13.0454C203.577 12.1681 205.474 11.2976 207.442 10.4536C207.965 10.2276 208.488 10.0083 209.003 9.78902C206.317 5.75512 205.279 3.53549 205.88 3.14339C206.153 2.96396 206.786 3.16998 207.77 3.76808Z" fill="#FFFFFF"/>
</g>
<defs>
<clipPath id="clip0_21_82">
<rect width="221.403" height="80" fill="white" transform="matrix(1 0 0 -1 0 80)"/>
</clipPath>
</defs>
</svg>
