<svg width="32" height="32" viewBox="0 0 32 32" fill="none" xmlns="http://www.w3.org/2000/svg">
<g clip-path="url(#clip0_21_71)">
<circle cx="16" cy="16" r="16" fill="#0055AA"/>
<path d="M21.2444 10.8059C20.9554 10.0321 20.5462 9.3456 20.0148 8.74634C19.4835 8.14709 18.8493 7.66808 18.1104 7.3093C17.4472 6.98737 16.718 6.81283 15.9248 6.77986C15.7852 7.06494 15.5098 7.27827 15.0948 7.27827C14.7534 7.27827 14.5071 7.13282 14.3539 6.92143C14.2822 6.94858 14.2027 6.96604 14.1193 6.97573C13.9971 7.08822 13.8342 7.16385 13.6364 7.191C13.6112 7.19682 13.586 7.2007 13.5608 7.20458C13.5161 7.22009 13.4696 7.23173 13.4211 7.24142C13.4037 7.24724 13.3843 7.25306 13.3668 7.25694V7.25888C12.9285 7.44311 12.4786 7.73207 12.017 8.12382C11.3945 8.63192 10.869 9.36499 10.4423 10.323C10.0157 11.281 9.65106 12.4408 9.35241 13.8041C9.05181 15.1675 8.79776 16.7306 8.59025 18.4953C8.38274 20.2601 8.21014 22.2072 8.07051 24.3308C8.07051 24.3773 8.10542 24.4646 8.17523 24.5907C8.24505 24.7187 8.3362 24.8447 8.45256 24.9708C8.56698 25.0988 8.69497 25.2074 8.83267 25.3005C8.97036 25.3935 9.10999 25.4381 9.24768 25.4381C9.54828 25.4381 9.79069 25.1957 9.97493 24.7109C10.1592 24.2261 10.4016 23.5395 10.7022 22.6513C11.0028 21.7631 11.3189 20.7702 11.6544 19.6725C11.988 18.5768 12.3293 17.4384 12.6764 16.2612C13.0236 15.0841 13.3455 13.9593 13.6461 12.8849C13.9467 11.8105 14.2182 10.8486 14.4606 9.99333C14.703 9.14003 14.8814 8.49229 14.9978 8.054C15.7134 8.054 16.365 8.18782 16.9546 8.45156C17.5441 8.71725 18.0503 9.07409 18.4789 9.52595C18.9055 9.97588 19.2352 10.5073 19.466 11.1181C19.6968 11.731 19.8131 12.3826 19.8131 13.0749C19.8131 13.9748 19.6464 14.9095 19.3109 15.8792C18.9754 16.8489 18.5196 17.8011 17.9436 18.7358C17.3657 19.6706 16.6908 20.5666 15.917 21.4199C15.1432 22.2751 14.3074 23.0353 13.4056 23.7063C12.5058 24.3754 11.5749 24.93 10.6188 25.3683C9.66076 25.8066 8.70855 26.0839 7.76215 26.2003H7.58955C7.40532 26.2003 7.30059 26.1538 7.27732 26.0626C7.25405 25.9695 7.21914 25.9249 7.1726 25.9249C7.12606 25.9249 7.08533 25.9715 7.05236 26.0626C7.01745 26.1538 7 26.2585 7 26.3748C7 26.5824 7.08145 26.784 7.24242 26.9799C7.40338 27.1758 7.59343 27.3484 7.81452 27.4997C8.03366 27.649 8.27026 27.7712 8.52431 27.8623C8.77836 27.9535 8.99751 28 9.18175 28C9.22829 28 9.26901 27.9942 9.30198 27.9825C9.33689 27.9709 9.37568 27.9651 9.42222 27.9651C10.3919 27.8041 11.3674 27.4686 12.3487 26.9605C13.33 26.4524 14.2764 25.8183 15.1878 25.0561C16.0993 24.2939 16.9488 23.4406 17.7322 22.4942C18.5177 21.5479 19.2042 20.5549 19.7918 19.5154C20.3814 18.476 20.8429 17.421 21.1765 16.3466C21.5101 15.2722 21.6788 14.2405 21.6788 13.2475C21.6788 12.3923 21.5333 11.5797 21.2444 10.8059ZM12.0345 12.2953C11.7455 13.4143 11.4624 14.512 11.187 15.5844C10.9097 16.6588 10.6382 17.6789 10.3725 18.6486C10.1068 19.6182 9.85857 20.4502 9.62779 21.1425C9.76548 20.1263 9.9342 19.0422 10.1301 17.8883C10.3259 16.7344 10.5567 15.6038 10.8224 14.4945C11.0881 13.3872 11.3887 12.3535 11.7223 11.3955C12.0558 10.4374 12.4321 9.66946 12.8471 9.09348C12.7268 9.57637 12.1858 11.7096 12.0345 12.2953Z" fill="white"/>
<path d="M12.7268 9.57636C12.8723 8.98681 13.1767 8.08696 13.8865 7.25692C16.491 4.20442 22.309 4.69507 22.6407 5.76364C22.724 6.03127 22.4603 6.33186 22.4467 6.34544C21.9231 6.92336 21.0058 6.09914 19.3438 6.34544C17.9901 6.54519 16.7684 7.36359 16.555 7.50904C16.5143 7.53619 16.4813 7.55946 16.46 7.57497C16.2137 7.74757 15.3914 8.32743 14.7767 9.08959C14.1095 9.91962 14.1716 10.3637 12.7268 9.57636Z" fill="white"/>
<path d="M21.7525 4.20059C23.9595 5.7792 25.158 6.52196 24.9679 6.92728C24.933 7.00292 24.8399 7.08825 24.58 7.12122C24.5374 7.12122 24.4695 7.12122 24.3861 7.12122C21.8592 7.13091 20.4376 7.52072 20.2573 7.10182C20.2418 7.06498 20.2282 7.00486 20.2573 6.90789C20.7111 6.6519 21.1823 6.39785 21.671 6.15155C21.801 6.08562 21.9309 6.02162 22.0589 5.95762C21.3918 4.78045 21.1338 4.13271 21.2832 4.01829C21.3511 3.96593 21.5081 4.02605 21.7525 4.20059Z" fill="white"/>
</g>
<defs>
<clipPath id="clip0_21_71">
<rect width="32" height="32" fill="white"/>
</clipPath>
</defs>
</svg>
