<svg width="32" height="32" viewBox="0 0 32 32" fill="none" xmlns="http://www.w3.org/2000/svg">
<g clip-path="url(#clip0_21_78)">
<path d="M9.65714 1.10625L9.14286 2H2.28571C1.02143 2 0 2.89375 0 4C0 5.10625 1.02143 6 2.28571 6H29.7143C30.9786 6 32 5.10625 32 4C32 2.89375 30.9786 2 29.7143 2H22.8571L22.3429 1.10625C21.9571 0.425 21.1643 0 20.3 0H11.7C10.8357 0 10.0429 0.425 9.65714 1.10625V1.10625ZM29.7143 8H2.28571L3.8 29.1875C3.91429 30.7687 5.41429 32 7.22143 32H24.7786C26.5857 32 28.0857 30.7687 28.2 29.1875L29.7143 8Z" fill="#0055AA"/>
</g>
<defs>
<clipPath id="clip0_21_78">
<rect width="32" height="32" fill="white"/>
</clipPath>
</defs>
</svg>
