<svg width="540" height="401" viewBox="0 0 540 401" fill="none" xmlns="http://www.w3.org/2000/svg">
<g clip-path="url(#clip0_21_93)">
<path d="M497.483 97.4774C436.194 12.2146 306.724 -22.3717 179.395 14.8786C112.08 34.5717 47.1751 74.0297 15.0101 150.433C-42.4884 287.013 78.2369 330.633 157.178 344.535C195.35 351.258 231.301 362.55 264.154 377.924C323.258 405.584 427.878 430.093 506.768 314.878C563.947 231.369 538.308 154.271 497.483 97.4774Z" fill="#E0E0E0"/>
<path d="M142.151 114.346C141.979 112.991 141.632 111.664 141.119 110.398C141.054 110.159 140.939 109.936 140.783 109.743C140.626 109.551 140.431 109.393 140.21 109.279C139.915 109.203 139.606 109.199 139.309 109.269L134.679 109.977C134.292 109.995 133.921 110.139 133.623 110.388C133.02 111.022 133.614 112.043 133.595 112.917C133.574 113.901 132.7 114.699 131.752 114.963C130.785 115.158 129.787 115.146 128.824 114.927L122.351 113.921C124.258 113.313 125.955 112.18 127.248 110.654C128.1 109.645 128.553 107.761 127.322 107.284C126.956 107.183 126.575 107.153 126.198 107.193C123.265 107.216 120.957 104.768 118.211 103.737C116.454 103.12 114.546 103.074 112.761 103.606C110.976 104.138 109.405 105.22 108.273 106.699L111.721 106.865C112.046 106.847 112.368 106.933 112.64 107.11C113.396 107.731 112.456 108.923 112.563 109.895C112.701 111.158 114.378 111.428 115.643 111.555C116.907 111.683 118.511 112.71 117.903 113.826C111.548 116.014 105.081 109.548 98.4072 110.344C96.718 110.545 95.123 111.209 93.4738 111.626C83.3996 114.174 72.9847 107.375 62.6933 108.815C60.4054 109.205 58.1568 109.798 55.9741 110.587C54.5734 111.046 53.1124 111.543 52.0947 112.61C51.077 113.676 50.6897 115.499 51.6538 116.614C48.9964 116.833 46.3212 116.579 43.7527 115.864C44.4472 116.25 45.0251 116.815 45.4255 117.502C45.826 118.188 46.0342 118.969 46.0284 119.764C41.8792 120.44 37.8399 121.671 34.019 123.425C34.7322 124.61 35.5651 125.719 36.5047 126.735L31.2519 130.109C33.0265 130.556 33.9441 132.975 32.9121 134.486C34.7522 133.667 35.8926 131.55 37.8603 131.121C39.1494 130.84 40.4611 131.367 41.684 131.862C42.9069 132.357 44.251 132.838 45.5169 132.466C46.7829 132.094 47.7167 130.453 46.9122 129.408C52.3233 127.829 57.9155 126.956 63.5503 126.809C63.985 126.754 64.4259 126.838 64.8104 127.048C65.5439 127.557 65.3509 128.656 65.3114 129.547C65.2719 130.439 65.967 131.611 66.7641 131.209C65.8263 132.022 66.628 133.552 67.5278 134.407C68.4275 135.262 69.5119 136.442 68.9611 137.554C68.8173 137.844 68.5735 138.076 68.4352 138.369C68.0269 139.234 68.6751 140.242 69.4398 140.816C70.2044 141.39 71.1411 141.791 71.6722 142.586C72.2034 143.381 71.9622 144.773 71.0124 144.884L68.3127 141.457C67.3903 142.413 66.758 143.611 66.489 144.912C69.3518 147.251 69.7824 152.013 67.3857 154.828C66.1609 156.267 64.4192 157.141 62.899 158.263C61.3789 159.385 59.9722 160.983 59.9761 162.872C59.9827 166.136 59.7159 169.168 60.9392 172.193C63.195 177.773 65.7994 183.205 68.737 188.458C69.5084 189.837 70.5053 191.349 72.0681 191.586C70.0931 186.779 68.3152 181.898 66.7344 176.942C67.764 176.946 68.9538 177.027 69.5574 177.861C70.0572 178.552 69.9499 179.491 70.1052 180.329C70.3027 181.141 70.6321 181.915 71.0802 182.62L80.5113 199.415C81.2931 200.808 82.1899 202.302 83.6841 202.866C84.6395 203.227 85.7448 203.159 86.6241 203.678C87.3133 204.084 87.7775 204.807 88.4801 205.19C90.4669 206.273 93.2296 204.195 95.0862 205.489C95.6171 205.859 95.9548 206.446 96.444 206.87C98.1587 208.354 100.972 207.361 102.951 208.469C104.227 209.182 104.888 210.61 105.569 211.903C107.273 215.144 110.031 218.318 113.684 218.576C114.831 218.657 116.003 218.44 117.125 218.695C118.247 218.95 119.351 219.929 119.171 221.064C118.862 223.012 119.824 225.144 119.566 227.098C119.095 230.659 114.044 232.223 113.61 235.788C113.515 236.569 113.664 237.374 113.478 238.138C113.25 239.075 112.547 239.837 112.297 240.768C111.823 242.532 113.087 244.287 114.476 245.474C115.864 246.66 117.52 247.683 118.28 249.345C119.082 251.1 118.688 253.147 118.949 255.06C119.519 259.236 123.126 262.331 126.839 264.327C127.97 264.935 129.184 265.524 129.916 266.579C130.872 267.955 130.777 269.771 131.096 271.416C131.877 275.445 135.27 278.765 135.366 282.868C135.435 285.784 133.813 288.43 132.845 291.182C131.936 293.818 131.608 296.619 131.881 299.394C132.154 302.169 133.023 304.852 134.428 307.261C135.153 308.484 136.02 309.638 136.532 310.964C137.447 313.33 137.15 316.02 137.993 318.413C139.109 321.576 142.172 324.189 141.879 327.53C143.27 330.418 146.342 331.837 149.431 332.697L154.966 334.237C156.026 334.532 157.134 334.829 158.213 334.616C159.292 334.402 160.322 333.506 160.294 332.407C157.58 331.795 154.778 331.144 152.54 329.49C150.303 327.836 148.77 324.892 149.619 322.242C150.013 321.014 150.85 319.595 150.054 318.58C149.598 317.999 148.764 317.847 148.25 317.317C147.448 316.49 147.723 315.1 148.3 314.103C148.877 313.105 149.71 312.214 149.943 311.086C150.06 310.454 149.982 309.802 149.718 309.217C149.454 308.632 149.018 308.141 148.467 307.811C149.493 307.423 150.427 306.824 151.207 306.053C151.927 305.23 152.26 303.962 151.693 303.027C153.377 303.241 155.364 303.345 156.469 302.058C157.351 301.03 157.29 299.493 156.942 298.184C156.593 296.875 156.004 295.604 155.986 294.25C159.868 294.434 163.76 294.302 167.621 293.855C167.063 291.975 165.794 290.386 164.084 289.426C165.832 289.13 167.426 287.037 167.978 285.352C168.531 283.667 168.39 281.832 168.048 280.092C167.917 279.644 167.899 279.17 167.996 278.713C168.193 278.086 168.809 277.703 169.38 277.376L178.061 272.392C178.579 272.132 179.048 271.786 179.449 271.367C180.358 270.299 180.223 268.687 179.758 267.364C179.292 266.041 178.546 264.796 178.367 263.405C177.83 259.245 182.285 256.26 183.789 252.344C184.379 250.807 184.499 249.136 184.613 247.494C184.736 245.73 184.745 243.681 183.39 242.545C182.091 241.455 180.062 241.698 178.704 240.685C177.458 239.755 177.028 237.951 175.667 237.2C174.431 236.519 172.881 236.952 171.507 236.632C169.086 236.067 167.563 233.278 165.091 233.02C163.697 232.875 162.118 233.556 160.975 232.744C159.968 232.029 159.928 230.591 159.736 229.37C159.4 227.474 158.491 225.726 157.131 224.362C155.771 222.998 154.025 222.083 152.129 221.741C150.691 221.51 149.126 221.598 147.903 220.808C146.664 220.008 146.096 218.51 145.123 217.402C143.555 215.617 141.085 214.983 138.771 214.439L129.36 212.227C127.69 211.834 125.536 211.626 124.64 213.089C124.374 213.646 124.187 214.237 124.081 214.845C123.746 215.945 123.07 216.91 122.151 217.601C121.232 218.293 120.117 218.675 118.967 218.694C118.178 217.349 116.9 216.36 115.4 215.935C114.446 215.669 113.424 215.639 112.514 215.248C112.019 215.006 111.577 214.666 111.218 214.248C110.858 213.829 110.588 213.342 110.423 212.816C110.259 212.29 110.203 211.735 110.26 211.187C110.317 210.639 110.486 210.107 110.755 209.626C111.298 208.661 111.507 207.543 111.352 206.446C111.196 205.35 110.683 204.335 109.893 203.558C108.293 202.122 105.977 201.775 103.832 201.919C103.269 200.693 104.209 199.309 105.222 198.418C106.235 197.527 107.464 196.651 107.685 195.321C108.032 193.228 105.361 191.638 103.332 192.262C101.304 192.886 100.01 194.856 99.1542 196.797C98.6632 197.911 98.2458 199.084 97.4714 200.023C96.697 200.962 95.4498 201.635 94.2702 201.333C92.6002 200.907 91.9552 198.923 91.5856 197.24C91.0897 194.982 90.591 192.692 90.6949 190.383C90.7988 188.073 91.5776 185.701 93.2812 184.138C96.0573 181.59 100.316 181.84 104.062 182.246C103.177 181.249 103.396 179.569 104.343 178.631C104.843 178.186 105.444 177.871 106.093 177.711C106.743 177.552 107.421 177.553 108.07 177.715C109.199 177.95 110.216 178.558 110.957 179.441C112.022 180.739 112.325 182.491 113.13 183.964C113.934 185.437 115.744 186.693 117.225 185.903C118.504 185.22 118.707 183.447 118.389 182.033C118.07 180.618 117.394 179.243 117.51 177.798C117.73 175.041 120.589 173.381 123.112 172.245C125.635 171.11 128.524 169.583 128.923 166.845C128.937 166.31 129.038 165.779 129.223 165.276C129.502 164.832 129.891 164.466 130.352 164.214C137.716 159.349 145.201 154.425 153.617 151.767C154.055 151.629 154.107 151.782 154.553 151.674C155.177 151.313 154.764 150.315 154.165 149.913C153.566 149.511 152.766 149.202 152.614 148.497C152.502 147.979 152.808 147.47 152.887 146.946C153.082 145.658 151.541 144.469 150.344 144.984C149.668 144.089 151.005 143.049 152.087 142.751C155.335 141.858 158.669 141.313 162.033 141.127C162.421 141.065 162.818 141.133 163.164 141.319C163.729 141.711 163.657 142.608 163.257 143.166C162.856 143.725 162.234 144.075 161.735 144.548C161.19 145.079 160.801 145.749 160.611 146.486C160.421 147.223 160.437 147.997 160.657 148.726C162.413 149.618 164.322 150.538 166.267 150.223C168.211 149.909 169.938 147.724 169.024 145.979C168.172 144.355 165.615 143.988 165.176 142.208C164.661 140.123 167.613 138.269 166.948 136.227C166.656 135.332 165.765 134.806 165.081 134.16C164.273 133.368 163.723 132.351 163.504 131.241C163.285 130.132 163.407 128.982 163.853 127.942C162.739 128.138 161.594 128.064 160.514 127.727C159.434 127.389 158.451 126.797 157.647 126.001C156.163 124.503 154.978 122.141 152.87 122.208C150.936 122.269 149.27 124.525 147.461 123.837C147.016 123.668 146.547 123.323 146.116 123.525C145.975 123.617 145.856 123.739 145.769 123.883C145.682 124.028 145.629 124.19 145.614 124.358C145.154 126.555 145.945 129.058 144.747 130.956C143.444 133.022 140.429 133.309 138.849 135.172C137.991 136.183 137.659 137.546 136.871 138.612C136.082 139.678 134.409 140.356 133.463 139.427C133.928 138.471 134.055 137.386 133.823 136.349C133.591 135.311 133.014 134.384 132.187 133.717C131.308 133.144 130.361 132.683 129.368 132.346C128.258 131.876 127.203 131.288 126.219 130.592C125.727 130.295 125.327 129.866 125.064 129.355C124.855 128.715 124.883 128.021 125.143 127.4C125.622 126.025 126.469 124.807 127.59 123.877C128.712 122.948 130.066 122.342 131.507 122.126C132.767 121.955 134.233 122.015 135.066 121.056C135.508 120.548 135.739 119.78 136.379 119.574C136.789 119.492 137.214 119.544 137.591 119.723L142.294 121.378C142.818 121.615 143.396 121.71 143.969 121.655C144.253 121.617 144.512 121.472 144.694 121.251C144.876 121.03 144.968 120.748 144.951 120.462C144.8 119.681 143.599 119.306 143.708 118.519C143.769 118.264 143.907 118.033 144.102 117.858C145.799 116.052 147.874 114.644 150.179 113.734C152.484 112.824 154.962 112.435 157.435 112.594C158.028 113.568 157.09 114.722 156.309 115.554C155.528 116.386 154.9 117.872 155.844 118.513C156.232 118.71 156.662 118.807 157.096 118.795C158.254 118.951 159.379 119.292 160.429 119.805C162.054 120.512 163.647 121.285 165.21 122.125C165.072 121.096 164.94 120.011 165.33 119.048C165.721 118.085 166.831 117.329 167.8 117.704C168.734 118.066 169.213 119.302 170.209 119.416C171.536 119.567 172.06 117.606 171.505 116.391C170.951 115.175 169.853 114.157 169.761 112.825C169.7 111.926 170.042 110.811 169.323 110.266C169.068 110.103 168.778 110.001 168.476 109.969L150.538 106.669C149.473 106.473 147.934 106.623 147.887 107.705C147.861 108.309 148.4 108.906 148.161 109.461C147.906 110.054 147.068 110 146.458 110.209C145.511 110.534 145.036 111.658 145.127 112.655C145.294 113.646 145.677 114.587 146.251 115.412C145.084 114.924 143.317 114.834 142.151 114.346Z" fill="#FF9900"/>
<path d="M127.838 99.1238C126.707 98.7496 125.488 98.7322 124.347 99.0739C123.206 99.4156 122.197 100.1 121.458 101.034C121.162 101.423 120.914 101.959 121.162 102.38C121.516 102.983 122.419 102.745 123.085 102.529C124.064 102.179 125.13 102.154 126.124 102.457C126.749 102.671 127.309 103.051 127.937 103.257C128.242 103.385 128.577 103.427 128.905 103.379C129.233 103.331 129.542 103.195 129.798 102.985C130.229 102.546 130.256 101.862 130.257 101.247C130.287 101.041 130.27 100.831 130.209 100.632C130.147 100.433 130.042 100.251 129.901 100.098C129.649 99.9524 129.367 99.8689 129.077 99.8543C128.427 99.734 127.839 99.3909 127.415 98.8839" fill="#FF9900"/>
<path d="M134.306 97.3235C134.053 97.3097 133.801 97.3612 133.573 97.4732C133.346 97.5851 133.151 97.7537 133.007 97.9626C132.864 98.1716 132.777 98.4139 132.754 98.6664C132.731 98.9188 132.774 99.1728 132.878 99.4039C133.655 99.6159 134.468 99.6688 135.266 99.5596C135.664 99.4978 136.035 99.3195 136.332 99.0473C136.629 98.7751 136.839 98.421 136.935 98.0298C135.995 98.2008 135.025 98.0156 134.214 97.5103" fill="#FF9900"/>
<path d="M156.007 94.3168C153.891 94.7665 151.835 95.4645 149.883 96.3963C150.804 96.7499 151.586 97.3897 152.115 98.2214C152.644 99.0532 152.892 100.033 152.822 101.016C152.739 101.393 152.749 101.785 152.85 102.158C153.074 102.703 153.726 102.908 154.299 103.048C155.328 103.361 156.403 103.498 157.478 103.453C158.016 103.425 158.538 103.263 158.998 102.983C159.457 102.702 159.839 102.311 160.11 101.846C160.265 101.404 160.448 100.972 160.657 100.552C162.03 98.4615 166.11 100.99 167.584 98.9688C168.104 98.2569 168.056 97.1854 168.733 96.6213C169.083 96.3755 169.489 96.2206 169.914 96.1706C172.879 95.5817 175.874 95.1553 178.886 94.8932C180.313 94.7691 182.173 94.2568 182.185 92.8249C176.81 91.7696 171.237 92.5191 166.332 94.957C164.565 95.8418 162.228 97.7031 160.526 96.53C159.888 96.0908 159.92 94.9081 159.043 94.4142C158.146 93.9092 156.959 94.1146 156.007 94.3168Z" fill="#FF9900"/>
<path d="M173.584 97.6029L176.107 98.0875C175.642 98.067 175.179 98.1456 174.747 98.3183C174.316 98.491 173.926 98.7537 173.604 99.089C173.282 99.4242 173.035 99.8242 172.88 100.262C172.725 100.7 172.665 101.167 172.705 101.63C175.067 102.419 177.643 101.651 180.132 101.756C182.621 101.861 185.517 103.638 185.092 106.092C184.963 106.834 184.535 107.575 184.758 108.295C184.914 108.799 185.359 109.156 185.61 109.621C186.133 110.588 185.715 111.812 185.054 112.692C184.394 113.571 183.506 114.273 182.926 115.207C181.484 117.532 182.303 120.537 183.162 123.134C183.411 124.116 183.869 125.031 184.506 125.818C185.779 127.171 187.853 127.288 189.71 127.315C191.062 127.335 192.611 127.268 193.465 126.221C194.581 124.854 193.801 122.721 194.536 121.117C195.203 119.66 196.903 119.035 198.444 118.592C201.266 117.779 204.142 117.089 206.81 115.862C210.123 114.339 213.219 111.964 216.861 111.768C217.882 111.713 218.929 111.834 219.913 111.554C220.897 111.274 221.832 110.424 221.757 109.404C221.694 108.532 220.956 107.892 220.38 107.235C219.803 106.578 219.351 105.568 219.881 104.872L229.425 103.09C228.749 101.247 228.222 98.8192 229.776 97.6194C230.337 97.1865 231.088 97.0135 231.566 96.4901C232.38 95.5982 231.97 94.0616 231.031 93.303C230.091 92.5444 228.821 92.3683 227.617 92.2684C223.432 91.9209 219.223 92.1505 215.03 92.3803C206.833 92.8295 198.636 93.2786 190.439 93.7278C188.789 93.8182 186.884 93.6801 185.371 94.2429C184.09 94.7193 183.179 95.5939 181.713 95.9012C179.008 96.4684 176.032 96.0846 173.584 97.6029Z" fill="#FF9900"/>
<path d="M218.783 117.54C218.526 117.499 218.263 117.559 218.049 117.707C217.907 117.863 217.823 118.062 217.81 118.273C217.647 119.201 217.841 120.157 218.353 120.949C218.614 121.337 218.974 121.649 219.396 121.851C219.818 122.053 220.286 122.139 220.752 122.099C221.888 121.954 222.725 120.985 223.77 120.512C225.38 119.784 232.216 118.649 227.487 116.095C225.857 115.215 224.804 115.992 223.52 116.572C222.058 117.319 220.421 117.654 218.783 117.54V117.54Z" fill="#FF9900"/>
<path d="M260.203 96.161C259.651 96.3865 259.189 96.7885 258.889 97.3042C258.751 97.5661 258.719 97.8709 258.8 98.1557C258.88 98.4406 259.067 98.6835 259.322 98.8344C259.528 98.9091 259.747 98.9438 259.966 98.9365L262.211 99.0036C263.165 99.0321 264.357 99.2352 264.613 100.154C264.803 100.836 264.377 101.713 264.891 102.201C265.112 102.372 265.377 102.475 265.655 102.499C266.395 102.689 267.167 102.714 267.917 102.572C269.551 102.134 268.693 101.137 269.207 100.249C269.994 98.8912 269.858 99.7133 271.245 98.9349C272.27 98.3601 273.593 97.3174 272.738 95.8524C271.251 93.3048 262.397 95.0666 260.203 96.161Z" fill="#FF9900"/>
<path d="M304.518 94.8802L303.215 95.0541C300.275 95.4463 297.318 95.8421 294.486 96.7248C295.712 97.2093 296.998 97.5247 298.309 97.6625C299.031 97.6978 299.747 97.7997 300.45 97.9668C301.701 98.339 302.961 99.3002 304.169 98.8078C304.919 98.5025 305.163 97.7226 305.784 97.3093C306.212 97.024 307.837 96.562 308.019 96.274C309.488 93.9453 305.647 94.7295 304.518 94.8802Z" fill="#FF9900"/>
<path d="M310.243 100.804C308.502 101.778 306.886 102.96 305.432 104.326C304.819 104.902 304.194 105.618 304.249 106.457C304.323 107.571 305.511 108.218 306.54 108.654L310.708 110.418C311.213 109.705 310.75 108.722 310.228 108.022C309.705 107.321 309.084 106.511 309.315 105.669C309.579 104.708 310.751 104.38 311.735 104.214C313.337 103.944 317.658 103.966 317.139 101.385C316.527 98.3435 311.851 99.9054 310.243 100.804Z" fill="#FF9900"/>
<path d="M309.405 272.92C309.008 274.069 308.971 275.422 309.657 276.424C310.427 277.549 311.969 277.969 313.302 277.683C314.63 277.33 315.814 276.569 316.686 275.508C317.484 274.619 318.141 273.613 318.633 272.524C319.319 270.828 319.803 269.056 320.075 267.246L321.369 260.454C321.659 258.936 321.647 254.282 318.856 255.798C318.094 256.212 316.329 259.483 315.53 260.411C314.09 262.082 313.899 263.704 313.141 265.729C312.191 268.266 310.283 270.38 309.405 272.92Z" fill="#FF9900"/>
<path d="M456.811 307.679C455.898 307.323 455.011 306.901 454.159 306.417C453.304 308.767 452.85 311.243 452.814 313.742L459.063 310.207C460.003 309.675 461.069 308.937 461.049 307.857C461.057 307.724 461.029 307.59 460.969 307.471C460.908 307.352 460.816 307.252 460.703 307.181C460.564 307.125 460.413 307.107 460.265 307.129C459.338 307.207 458.494 307.662 457.619 307.979C456.745 308.296 455.723 308.464 454.921 307.994" fill="#FF9900"/>
<path d="M489.775 309.778C489.089 309.965 488.419 310.205 487.771 310.497C486.337 311.227 485.362 312.612 484.071 313.573C482.836 314.492 481.35 314.997 479.891 315.488C479.461 315.867 479.659 316.631 480.125 316.964C480.626 317.249 481.2 317.378 481.775 317.335C483.291 317.369 484.888 317.383 486.216 316.651C486.965 316.166 487.665 315.61 488.307 314.992C489.86 313.697 491.725 312.842 493.57 312.017C494.242 311.763 494.863 311.392 495.405 310.92C496.564 309.778 496.646 308.016 494.974 307.627C493.622 307.313 491.062 309.362 489.775 309.778Z" fill="#FF9900"/>
<path d="M504.341 300.267C504.416 299.481 504.311 298.688 504.035 297.948C503.758 297.208 503.318 296.541 502.746 295.997C502.728 297.569 502.681 299.245 501.796 300.545C501.166 301.472 500.177 302.098 499.487 302.98C498.796 303.863 498.489 305.262 499.299 306.036C499.817 306.43 500.448 306.648 501.099 306.656C502.711 306.846 504.578 306.952 505.709 305.787C506.326 305.151 506.626 304.21 507.379 303.742C507.66 303.624 507.91 303.445 508.112 303.218C508.423 302.724 507.929 302.073 507.373 301.895C506.817 301.717 506.204 301.8 505.646 301.631C505.087 301.462 504.574 300.834 504.861 300.325" fill="#FF9900"/>
<path d="M478.454 242.606C477.608 242.812 476.731 242.863 475.867 242.758C474.431 242.495 473.314 241.413 472.155 240.526C469.4 238.429 466.05 237.259 462.588 237.184C459.438 237.125 456.259 237.978 453.166 237.383C453.368 238.506 454.33 239.349 455.356 239.85C456.383 240.351 457.515 240.603 458.547 241.094C460.198 241.888 461.508 243.25 462.236 244.931C462.568 245.706 462.777 246.55 463.28 247.227C464.309 248.61 466.258 248.914 467.978 248.801C470.221 248.653 472.563 248.008 474.65 248.844C476.246 249.483 477.388 250.879 478.721 251.965C480.054 253.051 481.931 253.857 483.461 253.074C481.872 252.559 480.488 251.55 479.513 250.194C478.537 248.838 478.021 247.206 478.039 245.535C479.54 245.673 483.863 245.62 483.63 243.07C483.433 240.909 479.743 242.373 478.454 242.606Z" fill="#FF9900"/>
<path d="M458.818 260.187C459.085 258.725 460.543 257.435 460.089 256.021C459.775 255.043 458.64 254.56 457.613 254.536C456.586 254.512 455.577 254.817 454.55 254.846C453.881 254.811 453.211 254.82 452.544 254.875C450.505 255.21 449.248 257.346 447.327 258.106C446.158 258.568 444.846 258.479 443.631 258.799C440.872 259.524 439.127 262.129 437.199 264.23C434.084 267.609 430.025 269.976 425.549 271.022C423.981 271.385 422.295 271.618 421.048 272.636C419.398 273.984 418.991 276.296 418.624 278.395C417.609 284.193 416.059 289.884 413.992 295.395L420.541 296.231C421.787 296.39 423.077 296.545 424.277 296.177C425.148 295.848 425.974 295.408 426.734 294.868C429.65 293.058 432.915 291.88 436.316 291.41C438.031 291.175 439.829 291.132 441.439 291.769C443.048 292.406 444.429 293.852 444.564 295.577C445.26 295.361 446.002 295.337 446.71 295.509C447.418 295.682 448.066 296.043 448.585 296.555C449.611 297.6 450.282 298.94 450.505 300.387C450.678 301.282 450.85 302.356 451.682 302.731C452.36 303.038 453.138 302.708 453.88 302.648C456.398 302.447 458.488 305.382 460.963 304.877C463.617 304.335 464.269 300.361 466.858 299.564C468.345 299.107 470.432 299.663 471.144 298.28C471.771 297.061 470.519 295.654 470.648 294.289C470.807 292.609 472.79 291.895 474.319 291.178C479.59 288.706 482.091 281.614 479.537 276.384C478.024 273.285 475.046 270.845 474.496 267.441C474.073 264.822 475.106 261.767 473.435 259.705C472.586 258.657 471.147 258.078 470.641 256.826C470.323 256.039 470.451 255.145 470.28 254.313C470.108 253.48 469.382 252.61 468.56 252.826C466.174 253.452 465.413 260.821 464.135 262.611C462.193 265.332 458.207 263.54 458.818 260.187Z" fill="#FF9900"/>
<path d="M414.716 245.39C413.901 245.162 413.011 244.936 412.229 245.263C411.448 245.59 410.992 246.736 411.619 247.305C416.524 247.114 421.46 246.925 426.323 247.591C431.927 248.358 437.473 250.259 443.102 249.7C439.886 248.751 436.618 247.993 433.314 247.429L427.804 246.377C426.326 246.067 424.832 245.837 423.33 245.686C420.186 245.426 417.807 246.257 414.716 245.39Z" fill="#FF9900"/>
<path d="M419.627 228.31C419.22 228.276 418.716 228.247 418.505 228.597C418.304 228.931 418.534 229.373 418.426 229.748C418.278 230.261 417.607 230.392 417.078 230.322C416.549 230.252 415.977 230.085 415.509 230.34C415.271 230.502 415.092 230.737 415 231.009C414.907 231.282 414.905 231.577 414.994 231.85C415.186 232.393 415.496 232.887 415.901 233.296C416.594 234.169 417.384 234.96 418.255 235.656C419.941 236.9 422.225 237.499 423.287 239.305C423.437 239.655 423.667 239.965 423.959 240.21C424.469 240.532 425.133 240.287 425.682 240.036L427.606 239.157C427.953 239.033 428.262 238.822 428.506 238.546C428.945 237.95 428.675 237.102 428.306 236.46C427.937 235.817 427.465 235.153 427.544 234.416C427.685 233.103 429.374 232.601 430.068 231.477C430.768 230.345 430.313 228.886 430.393 227.557C430.488 226.003 431.464 223.982 429.893 222.821C428.557 221.834 427.281 222.746 426.322 223.835C424.3 226.133 423.344 228.621 419.627 228.31Z" fill="#FF9900"/>
<path d="M431.305 205.092C431.962 206.35 433.331 207.1 434.048 208.324C434.824 209.652 434.736 211.366 435.578 212.653C436.442 213.973 438.181 214.673 438.665 216.174C439.195 217.813 437.994 219.805 438.951 221.237C439.129 221.471 439.355 221.666 439.612 221.808C439.87 221.951 440.154 222.038 440.447 222.065C440.74 222.092 441.036 222.058 441.315 221.965C441.594 221.871 441.851 221.721 442.069 221.524C442.473 221.085 442.689 220.505 442.671 219.909C442.653 219.313 442.404 218.748 441.975 218.333C441.408 217.817 440.595 217.594 440.122 216.99C439.876 216.642 439.711 216.243 439.642 215.822C439.384 214.609 439.425 213.351 439.762 212.157C439.889 211.854 439.921 211.519 439.854 211.198C439.642 210.579 438.803 210.535 438.215 210.248C436.879 209.596 436.911 207.711 437.145 206.243C436.989 207.22 433.507 205.558 433.143 205.004C432.418 203.905 432.813 201.783 432.669 200.568C431.105 201.322 430.502 203.555 431.305 205.092Z" fill="#FF9900"/>
<path d="M396.225 224.437C395.582 223.718 394.614 222.965 393.752 223.399C393.095 223.73 392.914 224.639 393.172 225.329C393.486 225.998 393.969 226.574 394.574 227C396.37 228.48 398.303 229.817 399.87 231.538C402.673 234.618 404.158 238.773 407.207 241.611C407.82 242.269 408.631 242.708 409.517 242.861C410.406 242.943 411.403 242.375 411.505 241.489C411.589 240.759 411.08 240.106 410.583 239.565C409.399 238.277 408.102 237.092 406.984 235.746C406.468 235.229 406.143 234.552 406.064 233.825C406.058 233.101 406.719 232.342 407.422 232.522C406.568 232.304 405.934 230.881 404.681 230.614C403.633 230.39 403.38 231.039 402.133 230.504C399.755 229.485 397.89 226.301 396.225 224.437Z" fill="#FF9900"/>
<path d="M452.093 154.4C451.411 154.197 450.741 153.958 450.085 153.682C448.319 153.153 445.984 154.45 446.219 156.277C446.375 157.492 447.506 158.31 448.13 159.364C449.056 160.926 448.809 162.907 448.322 164.656C448.203 165.198 447.976 165.71 447.654 166.162C447.205 166.639 446.668 167.026 446.073 167.3C443.688 168.636 441.586 170.422 439.881 172.558C439.696 172.755 439.567 172.999 439.508 173.263C439.423 173.88 440.044 174.329 440.395 174.844C441.174 175.987 440.611 177.525 440.688 178.907C440.676 179.102 440.714 179.297 440.799 179.473C440.883 179.65 441.012 179.802 441.172 179.915C441.641 180.153 442.198 179.748 442.452 179.287C443.297 177.757 442.661 175.301 444.246 174.563C444.545 174.424 444.909 174.365 445.109 174.102C445.426 173.684 445.12 173.066 445.281 172.566C445.522 171.817 446.547 171.783 447.334 171.817C448.69 171.873 450.045 171.693 451.338 171.284C451.846 171.163 452.306 170.896 452.664 170.516C453.137 169.925 453.095 169.085 453.001 168.333C452.527 164.587 451.34 160.966 449.504 157.666C450.896 157.844 452.41 157.998 453.612 157.272C454.284 156.866 455.091 155.652 454.757 154.825C454.23 153.518 453.277 154.618 452.093 154.4Z" fill="#FF9900"/>
<path d="M273.632 175.004C273.799 175.897 273.963 176.838 273.67 177.698C273.377 178.558 272.456 179.277 271.586 179.013C270.911 178.809 270.521 178.13 270.042 177.613C267.376 174.736 261.362 176.401 259.715 172.842C259.043 171.39 259.5 169.649 259.042 168.116C258.753 167.23 258.177 166.464 257.406 165.941C256.634 165.417 255.711 165.164 254.78 165.222C253.931 165.344 253.105 165.591 252.328 165.953C247.122 168.038 241.656 169.405 236.081 170.016C235.021 170.08 233.973 170.271 232.959 170.584C230.67 171.414 229.106 173.535 227.993 175.7C226.879 177.865 226.058 180.209 224.565 182.133C222.997 184.154 220.799 185.57 218.749 187.101C217.959 187.61 217.302 188.299 216.83 189.111C216.386 190.023 216.411 191.084 216.446 192.099L216.865 204.415C216.918 205.999 216.986 207.64 217.695 209.058C218.581 210.828 220.33 211.988 221.544 213.551C222.783 215.159 223.428 217.144 223.371 219.172C223.345 219.988 223.264 220.952 223.899 221.464C224.285 221.715 224.738 221.845 225.198 221.838L241.863 223.201C244.795 223.441 248.043 223.835 249.957 226.068C250.861 227.122 251.586 228.637 252.97 228.75C253.563 228.799 254.141 228.555 254.734 228.508C256.232 228.39 257.547 229.526 258.378 230.778C259.634 232.685 260.205 234.964 259.995 237.238C259.859 238.666 259.416 240.054 259.321 241.485C258.958 246.93 263.575 251.661 263.664 257.118C263.717 260.327 262.193 263.326 260.707 266.172C263.105 269.804 261.142 274.64 262.096 278.886C263.002 282.914 266.362 286.068 267.199 290.111C267.582 291.962 267.604 294.24 269.237 295.193C269.953 295.542 270.748 295.701 271.543 295.655C276.342 295.711 281.086 294.632 285.387 292.504C287.406 291.502 289.498 290.007 289.851 287.782C290.135 285.987 289.225 283.98 290.151 282.417C291.243 280.575 294.04 280.721 295.646 279.304C298.253 277.006 296.22 272.624 297.276 269.314C298.226 266.339 301.493 264.759 303.112 262.088C303.75 260.94 304.207 259.701 304.469 258.414C305.211 255.338 305.672 252.201 305.848 249.042C305.892 247.122 306.033 245.206 306.273 243.301C308.019 232.456 318.744 225.193 322.226 214.774C322.558 213.779 322.714 212.454 321.829 211.891C321.304 211.641 320.708 211.578 320.143 211.715L312.461 212.683C311.506 212.803 310.495 212.916 309.619 212.519C308.742 212.123 308.114 211.015 308.579 210.173C309.884 207.81 307.2 204.825 306.007 202.403C302.796 195.883 298.972 189.683 294.587 183.887C294.306 183.588 294.13 183.207 294.086 182.8L296.266 182.872C295.53 180.232 294.316 177.343 291.75 176.377C290.304 175.833 288.703 176.021 287.161 176.105C282.742 176.347 278.005 175.68 273.632 175.004Z" fill="#FF9900"/>
<path d="M287.164 115.506C288.32 116.733 289.616 118.035 291.289 118.249C294.243 118.627 296.368 115.572 297.72 112.919C297.771 113.595 298.083 114.225 298.59 114.675C299.098 115.125 299.761 115.359 300.439 115.328C301.168 115.205 301.864 114.933 302.483 114.529C308.338 111.331 314.895 109.636 321.566 109.597C321.502 109.092 321.627 108.581 321.918 108.163C322.209 107.744 322.644 107.449 323.14 107.332C324.496 107.064 325.718 108.236 326.372 109.454C327.027 110.672 327.435 112.083 328.474 112.995C329.514 113.906 331.526 113.867 331.937 112.547C332.331 111.279 331.011 110.198 329.913 109.451C328.816 108.704 327.66 107.321 328.399 106.219C334.004 104.978 339.644 103.733 345.379 103.487C346.356 103.521 347.329 103.353 348.238 102.994C349.113 102.565 349.808 101.591 349.573 100.646C348.321 100.94 347.01 100.855 345.807 100.401C344.604 99.9475 343.563 99.1459 342.818 98.0986C350.776 97.4421 359.241 96.8824 366.294 100.626C367.141 102.443 362.827 103.954 363.981 105.592C364.349 106.115 365.087 106.176 365.726 106.188C370.627 106.279 375.557 106.368 380.403 105.628C382.174 105.358 383.963 104.976 385.741 105.196C388.702 105.561 391.235 107.536 394.149 108.18C395.334 108.442 396.664 108.451 397.664 107.762C398.663 107.072 399.093 105.502 398.274 104.606C401.017 101.918 405.57 102.584 409.189 103.871C412.808 105.158 416.236 107.233 420.066 107.52C422.813 107.725 425.598 106.987 428.312 107.456C430.017 107.751 431.605 108.51 433.272 108.976C436.424 109.857 439.759 109.671 443.033 109.714C451.384 109.826 459.645 111.467 467.405 114.555C468.415 114.884 469.34 115.43 470.115 116.156C470.837 116.929 471.205 118.13 470.72 119.07L462.701 117.899C463.456 119.386 465.411 119.639 466.998 120.152C468.586 120.665 470.232 122.417 469.278 123.786C467.558 123.238 465.999 124.957 465.13 126.539C464.262 128.121 463.203 130.015 461.4 130.111C459.786 130.198 457.834 128.824 456.782 130.05C458.236 131.883 459.48 133.873 460.493 135.981C461.532 138.146 462.273 140.874 460.868 142.822C460.647 143.169 460.312 143.429 459.92 143.557C458.772 143.847 458.027 142.444 457.204 141.593C456.167 140.522 454.599 140.218 453.195 139.715C451.791 139.213 450.312 138.224 450.202 136.737C450.134 135.812 450.623 134.952 450.982 134.097C451.587 132.656 451.852 131.095 451.755 129.535C451.677 128.28 451.325 126.974 450.423 126.097C449.522 125.22 447.965 124.942 446.997 125.745C446.546 126.12 446.184 126.72 445.597 126.742C444.561 126.782 443.765 124.975 442.932 125.592C443.03 126.249 442.893 126.919 442.547 127.486C440.059 129.649 436.237 128.734 433.03 129.498C431.505 129.934 430.045 130.572 428.688 131.394C428.181 131.611 427.749 131.973 427.447 132.435C427.047 133.213 427.488 134.209 428.194 134.726C428.942 135.185 429.783 135.472 430.656 135.566C434.566 136.307 438.533 137.453 441.62 139.963C444.707 142.474 446.731 146.625 445.754 150.481L438.043 143.115C438.336 146.208 438.503 149.309 438.542 152.419C438.592 153.026 438.509 153.637 438.298 154.209C437.748 155.422 436.258 155.831 434.953 156.099C434.589 156.168 434.245 156.313 433.942 156.524C433.639 156.736 433.384 157.009 433.194 157.326C433.004 157.643 432.883 157.997 432.84 158.363C432.796 158.73 432.831 159.102 432.941 159.455C433.405 160.967 434.562 162.145 435.621 163.319C436.68 164.493 437.722 165.828 437.86 167.403C437.999 168.978 436.81 170.753 435.233 170.644C434.037 170.561 433.149 169.49 432.639 168.406C432.129 167.321 431.826 166.113 431.059 165.191C428.739 162.402 423.528 163.597 421.45 160.623C420.92 161.224 420.553 161.95 420.383 162.733C420.213 163.515 420.245 164.328 420.478 165.095C421.445 164.49 422.768 165.052 423.495 165.931C424.221 166.81 424.564 167.938 425.135 168.925C425.904 170.258 427.129 171.439 427.237 172.974C427.208 173.555 427.218 174.136 427.266 174.715C427.457 175.646 428.243 176.313 428.789 177.091C430.057 178.9 429.995 181.385 429.177 183.438C428.359 185.49 426.89 187.205 425.435 188.868C422.894 191.772 420.3 194.66 417.287 197.072C416.427 197.76 415.51 198.436 414.974 199.399C414.439 200.361 414.411 201.711 415.234 202.443C414.645 202.473 413.59 202.762 413.001 202.792C412.794 200.431 412.749 198.058 412.866 195.691C410.543 194.575 408.041 197.562 408.341 200.121C408.641 202.681 410.492 204.734 411.81 206.949C412.774 208.568 413.491 210.456 413.169 212.312C412.847 214.169 411.189 215.882 409.312 215.718C406.325 215.458 405.076 211.171 402.118 210.681C401.857 210.619 401.584 210.646 401.34 210.758C400.901 210.999 400.824 211.586 400.8 212.086C400.679 214.54 400.574 217.092 401.532 219.355C402.934 222.665 406.556 225.446 405.796 228.959C401.704 227.057 399.576 222.469 398.61 218.061C397.643 213.654 397.482 209.027 395.75 204.86C394.435 206.545 391.671 205.152 390.469 203.384C389.33 201.708 388.629 199.769 387.524 198.071C386.418 196.372 384.725 194.851 382.701 194.758C380.578 194.66 378.737 196.116 377.118 197.492C375.786 198.624 374.419 199.8 373.641 201.364C372.509 203.64 372.805 206.324 372.75 208.865C372.691 211.613 372.109 214.512 370.236 216.523C368.362 218.535 364.905 219.236 362.839 217.423C361.76 216.476 361.238 215.062 360.772 213.705C358.53 207.162 356.662 200.497 355.179 193.741C354.832 195.283 353.477 197.27 352.183 196.362C351.893 196.118 351.658 195.815 351.493 195.473C349.08 191.384 344.611 188.931 340.095 187.461C335.58 185.99 330.829 185.304 326.364 183.688C323.861 182.782 321.471 181.592 319.24 180.141C318.672 180.976 318.339 181.949 318.279 182.958C318.219 183.967 318.433 184.973 318.898 185.87C319.888 187.623 322.13 188.638 324.049 188.025C325.04 187.708 325.877 187.02 326.861 186.68C327.845 186.34 329.166 186.507 329.596 187.455C330.008 188.362 329.385 189.459 329.694 190.406C330.164 191.848 332.34 191.96 333.101 193.272C333.667 194.249 333.202 195.546 332.393 196.334C331.585 197.122 330.506 197.554 329.52 198.102C326.318 199.882 324.041 202.921 321.243 205.285C318.445 207.649 314.497 209.375 311.162 207.858C311.957 203.834 307.163 200.88 306.281 196.874C305.99 195.556 306.141 194.155 305.726 192.87C305.126 191.01 303.475 189.731 302.121 188.321C300.478 186.593 299.199 184.553 298.357 182.322C297.516 180.091 297.13 177.714 297.223 175.332C297.296 173.677 297.6 171.994 297.223 170.38C296.846 168.767 295.509 167.205 293.853 167.278C290.071 167.445 285.306 167.726 283.322 164.503C282.614 163.353 282.305 161.668 283.329 160.786C284.052 160.165 285.118 160.223 286.067 160.316L294.589 161.155C296.582 161.351 298.736 161.512 300.447 160.471C302.157 159.429 302.898 156.664 301.314 155.438C300.157 154.543 298.084 154.591 297.748 153.167C297.467 151.982 298.78 150.636 298.071 149.645C297.563 148.935 296.42 149.132 295.727 149.665C295.034 150.197 294.532 150.976 293.757 151.38C292.397 152.087 290.772 151.414 289.309 150.956C287.846 150.498 285.885 150.46 285.175 151.818C284.382 153.337 285.879 155.328 285.091 156.85C284.05 158.863 280.524 157.717 279.061 159.449C277.383 161.435 280.203 164.398 279.637 166.935C278.915 167.293 278.112 167.457 277.307 167.412C276.502 167.367 275.722 167.114 275.044 166.677C274.378 166.224 273.846 165.599 273.507 164.867C273.167 164.136 273.033 163.327 273.117 162.525C273.257 161.383 273.852 160.218 273.453 159.139C273.131 158.267 272.255 157.747 271.44 157.297L263.159 152.723C262.39 154.148 263.362 155.916 264.578 156.987C265.793 158.058 267.316 158.865 268.115 160.274C268.62 161.251 268.733 162.383 268.431 163.44C268.129 164.498 267.435 165.4 266.491 165.963C266.372 166.044 266.238 166.099 266.096 166.124C265.954 166.149 265.809 166.143 265.67 166.106C265.538 166.028 265.422 165.925 265.331 165.802C265.24 165.679 265.174 165.539 265.137 165.39C263.676 161.652 261.483 157.966 257.975 156.013C254.468 154.061 249.428 154.462 247.128 157.752C246.582 158.533 246.215 159.424 245.739 160.25C243.211 164.638 237.791 166.717 232.727 166.581C232.231 166.608 231.738 166.493 231.307 166.247C230.488 165.682 230.525 164.483 230.651 163.497L231.182 159.31C231.289 158.47 231.444 157.54 232.109 157.016C233.047 156.276 234.401 156.743 235.595 156.726C236.501 156.683 237.371 156.364 238.088 155.81C238.806 155.257 239.335 154.496 239.606 153.631C239.847 152.758 239.846 151.836 239.601 150.964C239.357 150.091 238.879 149.302 238.22 148.681C237.672 148.167 236.937 147.521 237.226 146.828C237.342 146.636 237.498 146.472 237.683 146.347C237.869 146.222 238.08 146.139 238.301 146.104C240.447 145.481 242.715 145.318 244.825 144.583C246.935 143.848 248.982 142.344 249.481 140.166C249.635 139.499 249.704 138.69 250.304 138.36C250.605 138.233 250.928 138.167 251.254 138.165C252.398 138.003 253.44 137.418 254.174 136.526C254.909 135.633 255.282 134.499 255.222 133.345C256.233 132.639 257.65 133.158 258.628 133.91C259.607 134.661 260.47 135.654 261.661 135.978C263.88 136.582 266.024 134.618 268.323 134.609C269.29 134.605 270.291 134.947 271.201 134.619C272.123 134.287 272.673 133.369 273.381 132.691C274.089 132.013 275.331 131.599 275.984 132.33L275.428 128.209C276.549 128.492 277.717 128.532 278.855 128.326C279.992 128.121 281.072 127.674 282.023 127.017L274.831 124.587C274.58 124.524 274.349 124.401 274.158 124.227C273.635 123.665 274.154 122.787 274.58 122.147C275.597 120.617 275.768 118.095 274.095 117.333C272.953 116.813 271.642 117.437 270.546 118.048L265.297 120.974C265.13 121.972 266.35 122.537 267.106 123.209C267.564 123.616 267.888 124.151 268.035 124.745C268.183 125.339 268.147 125.964 267.933 126.537C267.719 127.11 267.337 127.606 266.836 127.958C266.335 128.31 265.74 128.502 265.128 128.509C265.473 128.959 265.714 129.48 265.831 130.035C265.947 130.589 265.938 131.163 265.803 131.714L262.271 131.968C261.874 132.048 261.463 131.967 261.125 131.744C260.747 131.409 260.799 130.821 260.711 130.324C260.5 129.123 259.324 128.281 258.124 128.066C256.923 127.85 255.695 128.126 254.507 128.4C254.002 128.581 253.448 128.568 252.952 128.364C252.668 128.179 252.452 127.906 252.337 127.588C251.816 126.325 252.303 124.84 253.14 123.76C253.977 122.68 255.123 121.89 256.151 120.991C258.612 118.833 260.42 116.03 261.37 112.898C263.315 112.084 265.328 110.977 267.272 110.163C270.27 108.646 273.632 107.994 276.98 108.283L283.565 108.408C285.514 108.446 287.517 108.493 289.319 109.236C291.122 109.979 292.706 111.587 292.831 113.532C292.868 113.752 292.849 113.978 292.775 114.189C292.701 114.4 292.575 114.589 292.408 114.738C292.154 114.876 291.865 114.941 291.576 114.925C289.758 114.989 288.982 115.442 287.164 115.506Z" fill="#FF9900"/>
<path d="M234.677 136.138C234.935 135.894 235.12 135.585 235.212 135.243C235.305 134.901 235.302 134.54 235.203 134.2C234.577 133.959 233.896 133.897 233.236 134.021C232.577 134.146 231.965 134.452 231.471 134.905C231.081 135.299 230.744 135.744 230.471 136.226C229.606 137.638 228.84 139.323 229.342 140.901C229.383 141.073 229.457 141.235 229.562 141.378C229.666 141.521 229.798 141.641 229.95 141.732C230.174 141.823 230.417 141.861 230.658 141.843C231.611 141.842 232.564 141.784 233.51 141.668C234.091 141.597 234.766 141.433 234.99 140.892C235.286 140.182 234.571 139.378 234.779 138.637C234.916 138.306 235.124 138.009 235.388 137.766C235.519 137.644 235.619 137.493 235.682 137.325C235.744 137.157 235.766 136.977 235.747 136.799C235.663 136.452 235.131 136.255 234.939 136.557" fill="#FF9900"/>
<path d="M239.62 129.731C238.774 129.537 237.901 129.482 237.036 129.569C236.845 129.563 236.655 129.606 236.485 129.694C236.321 129.815 236.201 129.988 236.146 130.185C235.964 130.771 236.008 131.404 236.272 131.958C236.535 132.513 236.998 132.948 237.567 133.176C237.878 133.247 238.175 133.367 238.449 133.53C239.18 134.097 238.714 135.256 238.852 136.17C239.008 137.197 240.002 138.059 239.819 139.081C239.676 139.887 238.815 140.525 238.954 141.331C239.099 142.176 240.171 142.429 241.025 142.497C241.521 142.584 242.03 142.525 242.493 142.329C242.957 142.012 243.287 141.534 243.419 140.988C243.769 139.947 243.916 138.849 243.852 137.753C243.848 137.254 243.723 136.764 243.487 136.324C243.23 135.976 242.945 135.65 242.634 135.348C240.997 133.444 242.721 130.605 239.62 129.731Z" fill="#FF9900"/>
<path opacity="0.8" d="M454.895 278.864C454.895 278.864 329.51 206.911 275.53 220.544C275.53 220.544 161.13 232.852 147.872 259.929C147.872 259.929 111.507 146.318 98.2484 142.531" stroke="#0055AA" stroke-miterlimit="10"/>
<path opacity="0.8" d="M147.872 259.929C168.896 203.881 358.299 141.774 358.299 141.774C331.404 148.591 275.53 220.544 275.53 220.544C275.53 220.544 157.342 134.579 98.2484 142.531C98.2484 142.531 358.489 151.052 454.895 278.864" stroke="#0055AA" stroke-miterlimit="10"/>
<path d="M98.7557 149.037C102.069 149.037 104.756 146.351 104.756 143.039C104.756 139.726 102.069 137.04 98.7557 137.04C95.442 137.04 92.7557 139.726 92.7557 143.039C92.7557 146.351 95.442 149.037 98.7557 149.037Z" fill="#0055AA"/>
<path d="M148.379 266.435C151.693 266.435 154.379 263.749 154.379 260.436C154.379 257.124 151.693 254.438 148.379 254.438C145.066 254.438 142.379 257.124 142.379 260.436C142.379 263.749 145.066 266.435 148.379 266.435Z" fill="#0055AA"/>
<path d="M358.806 148.279C362.12 148.279 364.806 145.594 364.806 142.281C364.806 138.968 362.12 136.283 358.806 136.283C355.493 136.283 352.806 138.968 352.806 142.281C352.806 145.594 355.493 148.279 358.806 148.279Z" fill="#0055AA"/>
<path d="M455.402 285.37C458.716 285.37 461.402 282.684 461.402 279.372C461.402 276.059 458.716 273.373 455.402 273.373C452.088 273.373 449.402 276.059 449.402 279.372C449.402 282.684 452.088 285.37 455.402 285.37Z" fill="#0055AA"/>
<path d="M276.037 227.05C279.351 227.05 282.037 224.364 282.037 221.051C282.037 217.738 279.351 215.053 276.037 215.053C272.724 215.053 270.037 217.738 270.037 221.051C270.037 224.364 272.724 227.05 276.037 227.05Z" fill="#0055AA"/>
</g>
<defs>
<clipPath id="clip0_21_93">
<rect width="540" height="401" fill="white"/>
</clipPath>
</defs>
</svg>
